<svg xmlns="http://www.w3.org/2000/svg" viewBox="0 0 192 192">
  <rect width="192" height="192" rx="48" fill="#f5efe2" />
  <circle cx="96" cy="96" r="62" fill="#fffdf8" />
  <path d="M68 56c0-10.493 8.507-19 19-19h18c10.493 0 19 8.507 19 19v37c0 15.464-12.536 28-28 28s-28-12.536-28-28V56Z" fill="#a0642c"/>
  <path d="M56 91a6 6 0 0 1 12 0c0 15.464 12.536 28 28 28s28-12.536 28-28a6 6 0 0 1 12 0c0 18.76-13.557 34.353-31.348 37.517V144h14a6 6 0 0 1 0 12H73.348a6 6 0 0 1 0-12h14v-15.483C69.557 125.353 56 109.76 56 91Z" fill="#2f5e4a"/>
</svg>
