<svg xmlns="http://www.w3.org/2000/svg" viewBox="0 0 512 512">
  <rect width="512" height="512" rx="128" fill="#f5efe2" />
  <circle cx="256" cy="256" r="170" fill="#fffdf8" />
  <path d="M181 150c0-29.823 24.177-54 54-54h42c29.823 0 54 24.177 54 54v104c0 41.974-34.026 76-76 76s-76-34.026-76-76V150Z" fill="#a0642c"/>
  <path d="M150 249a16 16 0 0 1 32 0c0 41.974 34.026 76 76 76s76-34.026 76-76a16 16 0 0 1 32 0c0 52.547-37.732 96.282-87.5 105.591V384h38a16 16 0 0 1 0 32h-121a16 16 0 0 1 0-32h38v-29.409C187.732 345.282 150 301.547 150 249Z" fill="#2f5e4a"/>
</svg>
